<svg xmlns="http://www.w3.org/2000/svg" viewBox="0 0 2043.57 1081"><defs><style>.cls-1,.cls-9{fill:none;}.cls-1,.cls-2,.cls-4,.cls-7,.cls-9{stroke:#000;}.cls-1,.cls-2,.cls-3,.cls-4,.cls-5,.cls-6,.cls-7,.cls-8,.cls-9{stroke-miterlimit:10;}.cls-2{fill:#c2bfba;}.cls-3,.cls-4{fill:#f7f4ed;}.cls-3{stroke:#f7f4ed;}.cls-4,.cls-6,.cls-7,.cls-8,.cls-9{stroke-width:3px;}.cls-5{fill:#e0cac5;stroke:#e0cac5;}.cls-6{fill:#cfbab6;stroke:#937973;}.cls-7{fill:#c2c0b4;}.cls-8{fill:#b3b0a1;stroke:#666;}</style></defs><g id="background"><path class="cls-1" d="M160.39,960.69" transform="translate(64.09 1)"/><path class="cls-1" d="M160.39,62.45" transform="translate(64.09 1)"/><path class="cls-1" d="M187.88,119.46" transform="translate(64.09 1)"/><path class="cls-1" d="M188.39,124" transform="translate(64.09 1)"/><path class="cls-1" d="M1271.9,777.23" transform="translate(64.09 1)"/><path class="cls-1" d="M1470.39,764.2" transform="translate(64.09 1)"/><path class="cls-1" d="M1471.59,766.58" transform="translate(64.09 1)"/><path class="cls-1" d="M1844.62,862.54" transform="translate(64.09 1)"/><path class="cls-1" d="M1832.5,870.5" transform="translate(64.09 1)"/><path class="cls-1" d="M1711.5,880.5" transform="translate(64.09 1)"/><path class="cls-1" d="M1695.5,903.5" transform="translate(64.09 1)"/><path class="cls-1" d="M1709.5,887.5" transform="translate(64.09 1)"/><path class="cls-1" d="M1711.5,897.5" transform="translate(64.09 1)"/><path class="cls-1" d="M1710.5,880.5" transform="translate(64.09 1)"/><path class="cls-1" d="M1735.5,890.5" transform="translate(64.09 1)"/><path class="cls-1" d="M1697.5,869.5" transform="translate(64.09 1)"/><path class="cls-1" d="M1767.5,851.5" transform="translate(64.09 1)"/><path class="cls-1" d="M1843.5,868.5" transform="translate(64.09 1)"/><path class="cls-1" d="M1704.5,858.5" transform="translate(64.09 1)"/><path class="cls-1" d="M1677.5,880.5" transform="translate(64.09 1)"/><path class="cls-1" d="M1694.5,868.5" transform="translate(64.09 1)"/><path class="cls-1" d="M1701.5,867.5" transform="translate(64.09 1)"/><path class="cls-1" d="M1009.44,123.11" transform="translate(64.09 1)"/><path class="cls-1" d="M787.5,810.5" transform="translate(64.09 1)"/><path class="cls-2" d="M1827.5,850.5" transform="translate(64.09 1)"/><path class="cls-3" d="M586.5,404.5" transform="translate(64.09 1)"/><path class="cls-4" d="M620.5,684.58" transform="translate(64.09 1)"/><rect class="cls-5" x="0.59" y="0.5" width="2042" height="1080"/></g><g id="outline"><path class="cls-6" d="M1979,777.23a1738.25,1738.25,0,0,1-252.91,64.27,1775.28,1775.28,0,0,1-254.5,26" transform="translate(64.09 1)"/><path class="cls-6" d="M279.28,473.48a439.87,439.87,0,0,0,53.22,30A443.89,443.89,0,0,0,447.91,540" transform="translate(64.09 1)"/><path class="cls-6" d="M200.5,642.5a843.06,843.06,0,0,0,150-23,843.53,843.53,0,0,0,160-57.17" transform="translate(64.09 1)"/><path class="cls-6" d="M1979,454.44q-40.71.9-83.78.06a1972.75,1972.75,0,0,1-268.78-24,732.31,732.31,0,0,1-77.6-23,708.22,708.22,0,0,1-102.34-46" transform="translate(64.09 1)"/><path class="cls-7" d="M366.5,175.5v46.57l11,40.43,15,371V936.65l14.17,24L583.5,916.5l272-13h215l201.5,7,138.59,7,113,9-29-174-4-111,3-247,13-109,17-110L1470.39,164,1054.5,182.5l-291,2-203.37-7.15L393.5,171.5Z" transform="translate(64.09 1)"/><path class="cls-8" d="M560.13,177.35A69.24,69.24,0,0,0,604.5,208.5l116.06,20" transform="translate(64.09 1)"/><path class="cls-8" d="M366.18,203.08A759.21,759.21,0,0,1,435.5,254.5a760.9,760.9,0,0,1,65,61,317.45,317.45,0,0,0,119.18,87.08" transform="translate(64.09 1)"/><path class="cls-8" d="M1492.45,700.35a247.37,247.37,0,0,1-50,7.31,259.16,259.16,0,0,1-33-.62c-48.31-4.17-116.61-13.59-191-36.44-54.78-16.82-97.32-36.15-128.3-52.6" transform="translate(64.09 1)"/><path class="cls-8" d="M1501.5,326.5c-31.1,5.51-64.5,10.33-100,14-39,4-75.74,6.17-110,7" transform="translate(64.09 1)"/><path class="cls-8" d="M1496.5,373.5a173.23,173.23,0,0,1-32,17c-19,7.66-35.81,10.46-51.42,12.08-32.22,3.35-91.31,5-167,1.92" transform="translate(64.09 1)"/><path class="cls-8" d="M1332.71,913.57A300.92,300.92,0,0,0,1224.5,857.5a255.7,255.7,0,0,1-152-122" transform="translate(64.09 1)"/><path class="cls-8" d="M1506.5,285.5a393.9,393.9,0,0,0-183-26c-21.36,3.49-44.12,8.05-68,14a875.66,875.66,0,0,0-94,29.33" transform="translate(64.09 1)"/><path class="cls-8" d="M401.61,228.5a538.48,538.48,0,0,1,19.89,87,540.23,540.23,0,0,1,3,127q-5.5,73-11,146" transform="translate(64.09 1)"/><path class="cls-8" d="M547.5,925.5A448.46,448.46,0,0,0,560.13,787a210.16,210.16,0,0,0-40-102.43" transform="translate(64.09 1)"/><path class="cls-8" d="M918.74,684.58A210.48,210.48,0,0,0,960,764.2l170.34,141.38" transform="translate(64.09 1)"/><path class="cls-9" d="M1335.5,792.5" transform="translate(64.09 1)"/><path d="M365.21,199.55v5.72a1.5,1.5,0,1,0,3,0v-5.72a1.5,1.5,0,0,0-3,0Z" transform="translate(64.09 1)"/><path d="M557.63,178.72h6.59a1.5,1.5,0,0,0,0-3h-6.59a1.5,1.5,0,0,0,0,3Z" transform="translate(64.09 1)"/><path d="M547,927.08a13.39,13.39,0,0,0,3.25-.65,1.5,1.5,0,1,0-.8-2.89,11.6,11.6,0,0,1-2.26.53l.4-.05-.59.06a1.54,1.54,0,0,0-1.06.44,1.5,1.5,0,0,0,0,2.12,1.47,1.47,0,0,0,1.06.44Z" transform="translate(64.09 1)"/><path d="M1127.09,906.74a1.5,1.5,0,0,0,0-3,1.5,1.5,0,0,0,0,3Z" transform="translate(64.09 1)"/><path d="M1128.46,906.74h2a1.5,1.5,0,0,0,1.06-.44,1,1,0,0,0,.31-.48,1.06,1.06,0,0,0,.13-.58,1.47,1.47,0,0,0-.44-1.06,1.54,1.54,0,0,0-1.06-.44h-2a1.54,1.54,0,0,0-1.06.44,1.11,1.11,0,0,0-.31.49,1,1,0,0,0-.13.57,1.46,1.46,0,0,0,.44,1.06,1.54,1.54,0,0,0,1.06.44Z" transform="translate(64.09 1)"/><path d="M1328.72,914.59h6.14a1.5,1.5,0,0,0,0-3h-6.14a1.5,1.5,0,0,0,0,3Z" transform="translate(64.09 1)"/><path d="M1491,697.73l-.17,4.95a1.5,1.5,0,0,0,3,0l.17-4.95a1.5,1.5,0,0,0-1.5-1.5,1.54,1.54,0,0,0-1.5,1.5Z" transform="translate(64.09 1)"/><path d="M1501.74,327.61a1.5,1.5,0,0,0,0-3,1.5,1.5,0,0,0,0,3Z" transform="translate(64.09 1)"/><path d="M1501.47,329.19a1.5,1.5,0,0,0,0-3,1.5,1.5,0,0,0,0,3Z" transform="translate(64.09 1)"/><path d="M1496.12,374.83a1.5,1.5,0,0,0,0-3,1.5,1.5,0,0,0,0,3Z" transform="translate(64.09 1)"/><path d="M1495.88,376.54a1.5,1.5,0,0,0,0-3,1.5,1.5,0,0,0,0,3Z" transform="translate(64.09 1)"/><path d="M1495.63,378.13a1.5,1.5,0,0,0,0-3,1.5,1.5,0,0,0,0,3Z" transform="translate(64.09 1)"/><path d="M1497,377l.61-3.28a1.62,1.62,0,0,0-.15-1.16,1.52,1.52,0,0,0-.9-.69,1.54,1.54,0,0,0-1.15.15,1.51,1.51,0,0,0-.69.9l-.61,3.28a1.62,1.62,0,0,0,.15,1.16,1.56,1.56,0,0,0,.9.69,1.54,1.54,0,0,0,1.15-.16,1.47,1.47,0,0,0,.69-.89Z" transform="translate(64.09 1)"/><path d="M1500,326l-.2,2a1.06,1.06,0,0,0,.13.58,1.36,1.36,0,0,0,.79.79,1.06,1.06,0,0,0,.58.13,1.5,1.5,0,0,0,1.06-.44l.23-.3a1.45,1.45,0,0,0,.21-.76l.2-2a1.06,1.06,0,0,0-.13-.58,1.36,1.36,0,0,0-.79-.79,1.06,1.06,0,0,0-.58-.13,1.46,1.46,0,0,0-1.06.44l-.23.3a1.45,1.45,0,0,0-.21.76Z" transform="translate(64.09 1)"/><path d="M1505.33,283.23c-.14,1-.33,2.1-.55,3.14a1.5,1.5,0,0,0,1,1.85,1.54,1.54,0,0,0,1.15-.16,1.47,1.47,0,0,0,.69-.89c.23-1,.41-2.09.56-3.14a1.73,1.73,0,0,0-.16-1.16,1.5,1.5,0,0,0-2-.54,1.45,1.45,0,0,0-.69.9Z" transform="translate(64.09 1)"/><path class="cls-6" d="M50.81.5a201.35,201.35,0,0,0,51.69,36,202.7,202.7,0,0,0,81,20l120.26,6" transform="translate(64.09 1)"/><path class="cls-6" d="M-63,138c22.94-17,43.61-30.69,60.19-41,34.46-21.48,50.43-28.23,69.27-31.8a158.13,158.13,0,0,1,30.59-2.72" transform="translate(64.09 1)"/><path class="cls-6" d="M-63,562,44.77,446.91a680.44,680.44,0,0,0,61.58-121,617.65,617.65,0,0,0,28.78-97.43" transform="translate(64.09 1)"/><path class="cls-6" d="M246.64,202.41a874.46,874.46,0,0,1-92.17,134A916.7,916.7,0,0,1,45,447" transform="translate(64.09 1)"/><path class="cls-6" d="M-63,905.33a466.79,466.79,0,0,1,74.15-12.86,480.26,480.26,0,0,1,105.4,2L279.28,925" transform="translate(64.09 1)"/><path class="cls-6" d="M1979,91l-95.53,28.54a758,758,0,0,1-194.54,26,759.07,759.07,0,0,1-142.43-13" transform="translate(64.09 1)"/><path class="cls-6" d="M1728,446a790.71,790.71,0,0,0,129.76,41.35A848.54,848.54,0,0,0,1979,505.74" transform="translate(64.09 1)"/><path class="cls-6" d="M1705,1078a1271.35,1271.35,0,0,1-136.22-20.37c-34.74-7.15-67.14-15.33-97.07-24a224.06,224.06,0,0,1-41.15-15.79,221,221,0,0,1-34.06-21.15" transform="translate(64.09 1)"/></g></svg>