<svg xmlns="http://www.w3.org/2000/svg" viewBox="0 0 2040 1085.5"><defs><style>.cls-1{fill:#f4efe6;}.cls-1,.cls-4{stroke:#f7f4ed;}.cls-1,.cls-10,.cls-11,.cls-13,.cls-14,.cls-15,.cls-16,.cls-19,.cls-2,.cls-21,.cls-22,.cls-23,.cls-24,.cls-3,.cls-35,.cls-36,.cls-4,.cls-5,.cls-7,.cls-8,.cls-9{stroke-miterlimit:10;}.cls-2,.cls-20{fill:none;}.cls-10,.cls-11,.cls-13,.cls-14,.cls-15,.cls-16,.cls-19,.cls-2,.cls-21,.cls-22,.cls-23,.cls-24,.cls-3,.cls-35,.cls-36,.cls-5,.cls-7,.cls-8,.cls-9{stroke:#000;}.cls-3{fill:#c2bfba;}.cls-4,.cls-5,.cls-6{fill:#f7f4ed;}.cls-5{stroke-width:3px;}.cls-7{fill:#7f3622;}.cls-8{fill:#d3c6ba;}.cls-9{fill:#eacd8b;}.cls-10{fill:#561e1e;}.cls-11,.cls-25{fill:#d8852b;}.cls-12,.cls-26{fill:#28813a;}.cls-13{fill:#297a22;}.cls-14{fill:#eada81;}.cls-15{fill:#1c1313;}.cls-16,.cls-35{fill:#91392f;}.cls-17,.cls-18{fill:#ffaa45;}.cls-18,.cls-26{font-size:53px;font-family:ArialNarrow-Bold, Arial Narrow;font-weight:700;}.cls-19{fill:#424141;}.cls-21{fill:#efecea;}.cls-22{fill:#f42a26;opacity:0.36;}.cls-23{fill:#6d655d;}.cls-24{fill:#e5e2e1;}.cls-27{letter-spacing:-0.01em;}.cls-28{fill:#b2afaa;}.cls-29{fill:#161615;}.cls-30{fill:#e5e5dc;}.cls-31{fill:#ede096;}.cls-32{fill:#eada8c;}.cls-33{fill:#e8c98b;}.cls-34{fill:#edd2a2;}.cls-35,.cls-36{stroke-width:2px;}.cls-36{fill:#1c1919;}</style></defs><g id="background"><rect class="cls-1" x="0.5" y="1.5" width="2039" height="989.9"/><path class="cls-2" d="M77.39,949.69" transform="translate(119 1)"/><path class="cls-2" d="M160.39,62.45" transform="translate(119 1)"/><path class="cls-2" d="M104.88,108.46" transform="translate(119 1)"/><path class="cls-2" d="M105.39,113" transform="translate(119 1)"/><path class="cls-2" d="M1188.9,766.23" transform="translate(119 1)"/><path class="cls-2" d="M1387.39,753.2" transform="translate(119 1)"/><path class="cls-2" d="M1388.59,755.58" transform="translate(119 1)"/><path class="cls-2" d="M1761.62,851.54" transform="translate(119 1)"/><path class="cls-2" d="M1749.5,859.5" transform="translate(119 1)"/><path class="cls-2" d="M1628.5,869.5" transform="translate(119 1)"/><path class="cls-2" d="M1612.5,892.5" transform="translate(119 1)"/><path class="cls-2" d="M1626.5,876.5" transform="translate(119 1)"/><path class="cls-2" d="M1628.5,886.5" transform="translate(119 1)"/><path class="cls-2" d="M1627.5,869.5" transform="translate(119 1)"/><path class="cls-2" d="M1652.5,879.5" transform="translate(119 1)"/><path class="cls-2" d="M1614.5,858.5" transform="translate(119 1)"/><path class="cls-2" d="M1684.5,840.5" transform="translate(119 1)"/><path class="cls-2" d="M1760.5,857.5" transform="translate(119 1)"/><path class="cls-2" d="M1621.5,847.5" transform="translate(119 1)"/><path class="cls-2" d="M1594.5,869.5" transform="translate(119 1)"/><path class="cls-2" d="M1611.5,857.5" transform="translate(119 1)"/><path class="cls-2" d="M1618.5,856.5" transform="translate(119 1)"/><path class="cls-2" d="M926.44,112.11" transform="translate(119 1)"/><path class="cls-2" d="M704.5,799.5" transform="translate(119 1)"/><path class="cls-3" d="M1744.5,839.5" transform="translate(119 1)"/><path class="cls-4" d="M503.5,393.5" transform="translate(119 1)"/><path class="cls-5" d="M537.5,673.58" transform="translate(119 1)"/><path class="cls-6" d="M-10.54,1084.5a1.5,1.5,0,0,0,0-3,1.5,1.5,0,0,0,0,3Z" transform="translate(119 1)"/><path class="cls-7" d="M1181.36,536.26l38.14,27.24H1073.25l-28.75-27Z" transform="translate(119 1)"/><path class="cls-8" d="M1027.5,536.5l28.44,27H918.5l-17-27Z" transform="translate(119 1)"/><path class="cls-9" d="M1231.8,572.26l38.14,27.24H1115.5l-29.56-27Z" transform="translate(119 1)"/><path class="cls-9" d="M1066.5,571.5l27,28-147,1-20-28Z" transform="translate(119 1)"/><path class="cls-10" d="M1043.5,481.5" transform="translate(119 1)"/><path class="cls-10" d="M889.5,536.5l10.94,26H775.5l-6-27Z" transform="translate(119 1)"/><path class="cls-7" d="M907,573.5l21.5,28-139-1q-5-13-10-26Z" transform="translate(119 1)"/><path class="cls-10" d="M888,480.5" transform="translate(119 1)"/><path class="cls-10" d="M1039.5,499.5" transform="translate(119 1)"/><rect class="cls-11" x="80.5" y="253.5" width="199" height="127"/><rect class="cls-11" x="401.5" y="253.5" width="199" height="127"/><rect class="cls-11" x="641.5" y="253.5" width="199" height="127"/><rect class="cls-11" x="993.5" y="256.5" width="199" height="127"/><rect class="cls-12" x="1525" y="260" width="140" height="127" transform="translate(2037.5 -1270.5) rotate(90)"/><rect class="cls-12" x="1720.5" y="260.5" width="140" height="127" transform="translate(2233.5 -1465.5) rotate(90)"/><path class="cls-10" d="M1468.14,539.5q5.46,13,10.94,26H1354.14l-6-27Z" transform="translate(119 1)"/><path class="cls-13" d="M1485.64,576.5l21.5,28-139-1q-5-13-10-26Z" transform="translate(119 1)"/><path class="cls-14" d="M1553.52,538.5l8.48,26h-62.5l-14-26Z" transform="translate(119 1)"/><path class="cls-7" d="M1634.64,575.5l21.5,28-139-1-14.64-26Z" transform="translate(119 1)"/><path class="cls-15" d="M1623.5,538.5l13.67,26H1573.5l-12.83-26Z" transform="translate(119 1)"/></g><g id="d2_trace"><line class="cls-16" x1="0.5" y1="800.5" x2="2039" y2="800.5"/><line class="cls-2" x1="0.5" y1="242.84" x2="2039" y2="245"/><polygon class="cls-11" points="1435 616.5 1213.5 462.5 1213.5 245 1435 245 1435 616.5"/><polygon class="cls-11" points="1213.5 462.5 1213.5 527.01 1305.66 527.01 1213.5 462.5"/><circle class="cls-17" cx="603.5" cy="95.5" r="56.5"/><text class="cls-18" transform="translate(476.58 206.32)">HOME BAKED</text><line class="cls-11" x1="1305.66" y1="527.01" y2="527.01"/><line class="cls-19" y1="616.82" x2="1435" y2="616.5"/><rect class="cls-20" x="64" y="1" width="1975" height="244"/><rect class="cls-2" x="1435" y="245" width="30" height="371.5"/><rect class="cls-21" x="380.5" y="0.5" width="202" height="852"/><rect class="cls-22" x="0.5" y="636.5" width="2039" height="196"/><rect class="cls-23" x="0.5" y="870.5" width="2039" height="211"/><rect class="cls-24" x="358.5" y="843.5" width="242" height="17"/><rect class="cls-19" x="106.5" y="832.5" width="12" height="31"/><rect class="cls-19" x="93.5" y="857.5" width="38" height="10"/><rect class="cls-19" x="557.5" y="832.5" width="12" height="31"/><rect class="cls-19" x="544.5" y="857.5" width="38" height="10"/><rect class="cls-19" x="989.5" y="832.5" width="12" height="31"/><rect class="cls-19" x="976.5" y="857.5" width="38" height="10"/><rect class="cls-19" x="1442.5" y="832.5" width="12" height="31"/><rect class="cls-19" x="1429.5" y="857.5" width="38" height="10"/><rect class="cls-19" x="1853.5" y="832.5" width="12" height="31"/><rect class="cls-19" x="1840.5" y="857.5" width="38" height="10"/><line class="cls-19" x1="1465" y1="616.5" x2="2040" y2="616.5"/><line class="cls-19" x1="1467.5" y1="527.01" x2="2039" y2="527.01"/><path class="cls-2" d="M1186.66,526,1316,615.5Z" transform="translate(119 1)"/><path class="cls-25" d="M1137.54,486.2a27.35,27.35,0,0,1-16.49-7.14l-1.46,2.5c5.55,2.1,10.59,5.63,15.65,8.66l16.22,9.72,1.16-2.74a96.9,96.9,0,0,1-36.19-18.71c-1.48-1.23-3.61.89-2.12,2.12a100.41,100.41,0,0,0,37.51,19.48,1.51,1.51,0,0,0,1.16-2.74l-16.65-10c-5.17-3.1-10.28-6.57-15.95-8.71-1.41-.53-2.52,1.53-1.46,2.51a30.67,30.67,0,0,0,18.62,8c1.93.14,1.92-2.86,0-3Z" transform="translate(119 1)"/><path class="cls-25" d="M1109.57,469.15a134.8,134.8,0,0,0,23.08,18.71l1.51-2.59L1122,477.74a1.5,1.5,0,0,0-1.82,2.35,121.66,121.66,0,0,0,11,9.67,83.92,83.92,0,0,0,10.23,6.31c6.7,3.67,13.92,7.33,18.3,13.85l2-2.05-17-11.84-1.16,2.74a98.87,98.87,0,0,1,27.42,15.78l1.46-2.51a23.35,23.35,0,0,1-8.22-4.64,1.5,1.5,0,0,0-2.12,2.12,46.6,46.6,0,0,0,19.68,13.53l.8-2.9a20.83,20.83,0,0,1-9.57-5.67l-1.46,2.51a32.06,32.06,0,0,1,11.43,6.41c1.45,1.26,3.58-.86,2.12-2.13a35.85,35.85,0,0,0-12.75-7.17,1.51,1.51,0,0,0-1.46,2.51,23.94,23.94,0,0,0,10.89,6.44c1.89.51,2.59-2.25.8-2.9a43.49,43.49,0,0,1-18.36-12.75l-2.12,2.12a26.93,26.93,0,0,0,9.54,5.41c1.37.44,2.64-1.55,1.46-2.5a103.51,103.51,0,0,0-28.74-16.56c-1.69-.63-2.46,1.84-1.16,2.75l17,11.84c1.22.85,2.87-.83,2-2-4.48-6.67-11.5-10.62-18.38-14.38a98.36,98.36,0,0,1-10.48-6.31,108.7,108.7,0,0,1-11.15-9.75l-1.81,2.36,12.12,7.53c1.65,1,3.13-1.55,1.51-2.59A131.27,131.27,0,0,1,1111.69,467c-1.36-1.38-3.48.74-2.12,2.12Z" transform="translate(119 1)"/><path class="cls-25" d="M1187,522.39h-5.65a1.5,1.5,0,0,0,0,3H1187a1.5,1.5,0,0,0,0-3Z" transform="translate(119 1)"/><path class="cls-25" d="M1185.05,525.51h3.23a1.54,1.54,0,0,0,1.06-.44,1.52,1.52,0,0,0,.44-1.06,1.48,1.48,0,0,0-.44-1.07,1.58,1.58,0,0,0-1.06-.43h-3.23a1.5,1.5,0,0,0,0,3Z" transform="translate(119 1)"/><path class="cls-25" d="M1095.05,461.44v1.8l2.94-.4c0-.09,0-.18,0-.27l.06.39a6.93,6.93,0,0,1,0-1.93l-.06.4,0-.18a1.11,1.11,0,0,0,0-.6,1,1,0,0,0-.17-.56,1.55,1.55,0,0,0-.9-.69,1.57,1.57,0,0,0-1.16.15,1.43,1.43,0,0,0-.68.9,9.51,9.51,0,0,0-.15,1.59,10.71,10.71,0,0,0,.16,1.6,1.26,1.26,0,0,0,.27.51,1.18,1.18,0,0,0,.42.38l.36.15a1,1,0,0,0,.6,0,.75.75,0,0,0,.38-.1,1.24,1.24,0,0,0,.48-.31,1.58,1.58,0,0,0,.44-1.06v-1.8a1.56,1.56,0,0,0-.44-1.06,1.52,1.52,0,0,0-1.06-.44,1.5,1.5,0,0,0-1.06.44,1.54,1.54,0,0,0-.44,1.06Z" transform="translate(119 1)"/><path class="cls-25" d="M1096.48,464.92a74.14,74.14,0,0,1,6.7,3.28,35,35,0,0,1,5.78,4.36,26.38,26.38,0,0,0,5.37,4c2.13,1.11,4.46,1.79,6.45,3.17l.76-2.8-2.61.21a1.28,1.28,0,0,1-.87-.1,4.44,4.44,0,0,1-.91-.88,24,24,0,0,0-4-3.41c-2.67-1.67-6.32-2.4-8.25-5.06-1.13-1.55-3.73-.05-2.59,1.51,2.36,3.26,6.07,4.1,9.32,6.14,1.7,1.07,2.93,2.64,4.43,3.94s3.56.81,5.47.65a1.51,1.51,0,0,0,.76-2.79c-1.94-1.34-4.19-2-6.28-3.08a26.33,26.33,0,0,1-5.55-4.2,46.73,46.73,0,0,0-12.47-7.56c-1.75-.79-3.28,1.8-1.52,2.59Z" transform="translate(119 1)"/><text class="cls-26" transform="translate(1733.21 207.7)">FEE<tspan class="cls-27" x="84.52" y="0">L</tspan><tspan x="110.32" y="0" xml:space="preserve"> GOOD</tspan></text><circle class="cls-12" cx="1853.5" cy="95.5" r="56.5"/><path class="cls-28" d="M-19.64,242.64A38.55,38.55,0,0,1-21,253a1.51,1.51,0,0,0,2.9.8,41.68,41.68,0,0,0,1.48-11.16,1.52,1.52,0,0,0-1.5-1.5,1.52,1.52,0,0,0-1.5,1.5Z" transform="translate(119 1)"/><path class="cls-28" d="M-14.89,242.24v11.21a1.5,1.5,0,0,0,3,0V242.24a1.5,1.5,0,0,0-3,0Z" transform="translate(119 1)"/><path class="cls-28" d="M111.24,243l1,10a1.5,1.5,0,0,0,3,0l-1-10a1.5,1.5,0,0,0-3,0Z" transform="translate(119 1)"/><path class="cls-28" d="M115.21,242.24a87.54,87.54,0,0,0,1.05,12,1.51,1.51,0,0,0,1.84,1.05,1.55,1.55,0,0,0,1.05-1.85,82.26,82.26,0,0,1-.94-11.19c0-1.93-3-1.94-3,0Z" transform="translate(119 1)"/><path class="cls-28" d="M540.23,243.84a47.38,47.38,0,0,0,.22,8.83,1.54,1.54,0,0,0,1.5,1.5c.74,0,1.6-.67,1.5-1.5a47.38,47.38,0,0,1-.22-8.83,1.5,1.5,0,0,0-1.5-1.5,1.54,1.54,0,0,0-1.5,1.5Z" transform="translate(119 1)"/><path class="cls-28" d="M546,242.25a26.2,26.2,0,0,0,.58,10.43,1.5,1.5,0,1,0,2.89-.8,23,23,0,0,1-.58-8.83,1.55,1.55,0,0,0-1.05-1.85,1.51,1.51,0,0,0-1.84,1.05Z" transform="translate(119 1)"/><path class="cls-28" d="M698,243v9.21a1.5,1.5,0,0,0,3,0V243a1.5,1.5,0,1,0-3,0Z" transform="translate(119 1)"/><path class="cls-28" d="M690.78,242.24v11.61a1.5,1.5,0,0,0,3,0V242.24a1.5,1.5,0,0,0-3,0Z" transform="translate(119 1)"/><path class="cls-28" d="M898.75,241.83a13.31,13.31,0,0,0,1.3,14.54,1.5,1.5,0,0,0,2.12,0,1.53,1.53,0,0,0,0-2.12,10.2,10.2,0,0,1-.83-10.91c.93-1.69-1.66-3.21-2.59-1.51Z" transform="translate(119 1)"/><path class="cls-28" d="M904.39,242.65a27.88,27.88,0,0,0,1,12.44,1.5,1.5,0,0,0,2.89-.8,24.44,24.44,0,0,1-1-10.84,1.56,1.56,0,0,0-1-1.85,1.51,1.51,0,0,0-1.84,1.05Z" transform="translate(119 1)"/><path class="cls-28" d="M1024.78,242.66a28.67,28.67,0,0,1,1.55,12.79,1.5,1.5,0,1,0,3,0,30.64,30.64,0,0,0-1.66-13.59,1.54,1.54,0,0,0-1.84-1.05,1.51,1.51,0,0,0-1,1.85Z" transform="translate(119 1)"/><path class="cls-28" d="M1031.17,243.45a99.8,99.8,0,0,1,1,12.81c0,1.92,3,1.93,3,0a108.77,108.77,0,0,0-1.14-13.61,1.53,1.53,0,0,0-1.85-1.05,1.55,1.55,0,0,0-1,1.85Z" transform="translate(119 1)"/><path class="cls-28" d="M1545.84,241.84v11.21a1.5,1.5,0,0,0,3,0V241.84a1.5,1.5,0,0,0-3,0Z" transform="translate(119 1)"/><path class="cls-28" d="M1550.28,242.24a109.75,109.75,0,0,0,.15,12,1.54,1.54,0,0,0,1.5,1.5,1.51,1.51,0,0,0,1.5-1.5,109.75,109.75,0,0,1-.15-12,1.51,1.51,0,0,0-1.5-1.5,1.53,1.53,0,0,0-1.5,1.5Z" transform="translate(119 1)"/><path class="cls-28" d="M1628.38,241.84a97.12,97.12,0,0,0,.2,12.42,1.54,1.54,0,0,0,1.5,1.5,1.5,1.5,0,0,0,1.5-1.5,97.12,97.12,0,0,1-.2-12.42,1.5,1.5,0,1,0-3,0Z" transform="translate(119 1)"/><path class="cls-28" d="M1634.24,242.24l.52,12.41a1.5,1.5,0,0,0,3,0l-.52-12.41a1.5,1.5,0,0,0-3,0Z" transform="translate(119 1)"/><path class="cls-28" d="M1743.32,241.84a131.39,131.39,0,0,0,.18,14,1.54,1.54,0,0,0,1.5,1.5,1.52,1.52,0,0,0,1.5-1.5,131.39,131.39,0,0,1-.18-14c.08-1.93-2.92-1.93-3,0Z" transform="translate(119 1)"/><path class="cls-28" d="M1748.14,242.64a52.12,52.12,0,0,0,.66,12.84,1.5,1.5,0,0,0,2.9-.8,48.55,48.55,0,0,1-.56-12,1.51,1.51,0,0,0-1.5-1.5,1.53,1.53,0,0,0-1.5,1.5Z" transform="translate(119 1)"/><path class="cls-28" d="M1824.58,242.64v12a1.5,1.5,0,0,0,3,0v-12a1.5,1.5,0,0,0-3,0Z" transform="translate(119 1)"/><path class="cls-28" d="M1829.42,242.24a37.1,37.1,0,0,0,1.25,12.8,1.51,1.51,0,0,0,2.9-.8,34.45,34.45,0,0,1-1.15-12,1.5,1.5,0,1,0-3,0Z" transform="translate(119 1)"/><path class="cls-29" d="M-26.84,278.74a24.66,24.66,0,0,1,6.41-1.85,6.73,6.73,0,0,1,3-.11c.76.31,1.31,1.18,2,1.57a10.57,10.57,0,0,0,4.95.78,7.13,7.13,0,0,1,2.47.33c.93.35,1.72,1,2.62,1.43,3.9,1.8,8.48-.27,12.4-1,4.39-.87,8.91-1.19,13.23.19,1.85.59,2.63-2.3.8-2.89-4.38-1.41-9-1.22-13.46-.45-2.28.39-4.51,1-6.76,1.49a10.32,10.32,0,0,1-3.58.38,7.34,7.34,0,0,1-2.85-1.24A10.42,10.42,0,0,0-11,276.12a7.63,7.63,0,0,1-2.61-.25c-.86-.31-1.36-1.11-2.14-1.58-1.77-1.06-4.25-.52-6.16-.18a27.42,27.42,0,0,0-6.48,2c-1.76.78-.24,3.36,1.52,2.59Z" transform="translate(119 1)"/><path class="cls-29" d="M30,278.53c4.1,1.31,8.36.38,12.41-.68s8.18-2.37,12.27-1.08c1.85.58,2.64-2.31.8-2.89-4.11-1.3-8.36-.36-12.42.7s-8.18,2.36-12.27,1.05c-1.84-.59-2.63,2.31-.79,2.9Z" transform="translate(119 1)"/><path class="cls-29" d="M71.19,277.77l14,.63c1.93.09,1.92-2.91,0-3l-14-.63c-1.93-.09-1.93,2.91,0,3Z" transform="translate(119 1)"/><path class="cls-29" d="M133.45,276.83h13.42a1.5,1.5,0,0,0,0-3H133.45a1.5,1.5,0,0,0,0,3Z" transform="translate(119 1)"/><path class="cls-29" d="M137.2,296.69h9.67a1.5,1.5,0,0,0,0-3H137.2a1.5,1.5,0,0,0,0,3Z" transform="translate(119 1)"/><path class="cls-29" d="M136.67,321.93a66.78,66.78,0,0,0,11.12-.69,1.5,1.5,0,1,0-.8-2.89,62.5,62.5,0,0,1-10.32.58,1.5,1.5,0,0,0,0,3Z" transform="translate(119 1)"/><path class="cls-29" d="M138.28,340.17h9.66a1.5,1.5,0,0,0,0-3h-9.66a1.5,1.5,0,0,0,0,3Z" transform="translate(119 1)"/><path class="cls-29" d="M-26.53,299.9a3.47,3.47,0,0,1,3.87-2.14,3.56,3.56,0,0,1,1.8,1c.62.64.8,1.54,1.39,2.21,1.18,1.33,2.88,1.15,4.43.68a54.45,54.45,0,0,1,6-1.52c8.19-1.51,16.61-1,24.86-.54,1.93.11,1.93-2.89,0-3-9-.5-18.13-1-27,.91q-1.69.36-3.36.84c-.6.18-2,.95-2.63.7-.33-.15-.52-.95-.7-1.25a6.31,6.31,0,0,0-.66-.88,6.53,6.53,0,0,0-2.15-1.61,6.47,6.47,0,0,0-8.77,3.79c-.7,1.8,2.2,2.58,2.89.8Z" transform="translate(119 1)"/><path class="cls-29" d="M32.11,297.88l.09,1.71a1.52,1.52,0,0,0,2.25,1.3A26.16,26.16,0,0,1,52,299.37c1.87.49,2.67-2.41.8-2.89a29.39,29.39,0,0,0-19.84,1.82l2.26,1.29-.09-1.71c-.1-1.92-3.1-1.94-3,0Z" transform="translate(119 1)"/><path class="cls-29" d="M77.62,299.42a178.26,178.26,0,0,1,19.34.27c1.93.14,1.92-2.87,0-3a178.26,178.26,0,0,0-19.34-.27c-1.92.08-1.93,3.08,0,3Z" transform="translate(119 1)"/><path class="cls-29" d="M-23.14,323.27c3.5.48,6.86-.19,10.33-.68a19.21,19.21,0,0,1,5.3-.21,18,18,0,0,1,5,1.87c3.43,1.52,7.57,1.14,11.25,1.27l12.55.46c1.93.07,1.93-2.93,0-3L9,322.53c-3.73-.13-7.76.26-11.17-1.45a16.41,16.41,0,0,0-9.77-1.6c-3.42.4-6.92,1.37-10.37.9a1.56,1.56,0,0,0-1.85,1.05,1.51,1.51,0,0,0,1.05,1.84Z" transform="translate(119 1)"/><path class="cls-29" d="M38.46,322.84a69,69,0,0,0,12.2.1c3.92-.32,7.7-1.16,11.56-1.85a9.26,9.26,0,0,1,4.9.1c1.64.62,2.71,2.15,4.39,2.76a10.56,10.56,0,0,0,5,.2c2-.29,4.1-.64,6.14-1l14-2.22c1.91-.3,1.1-3.19-.79-2.89L83.82,320l-6,.95c-1.66.26-3.63.78-5.27.18s-2.64-2.06-4.23-2.69a10.35,10.35,0,0,0-5-.5c-3.75.43-7.38,1.49-11.15,1.88a69,69,0,0,1-13.63,0c-1.92-.18-1.91,2.82,0,3Z" transform="translate(119 1)"/><path class="cls-29" d="M-18.11,349.06c14.87-2.14,29.89,3,44.66-.64,1.87-.46,1.08-3.36-.8-2.9-14.68,3.59-29.82-1.49-44.65.64A1.52,1.52,0,0,0-19.95,348a1.55,1.55,0,0,0,1.84,1.05Z" transform="translate(119 1)"/><path class="cls-29" d="M57.23,366.49a93.12,93.12,0,0,1,15,.59,1.51,1.51,0,0,0,1.5-1.5,1.54,1.54,0,0,0-1.5-1.5,93.12,93.12,0,0,0-15-.59c-1.93.08-1.94,3.08,0,3Z" transform="translate(119 1)"/><path class="cls-29" d="M.33,372.37h15a1.5,1.5,0,0,0,0-3H.33a1.5,1.5,0,0,0,0,3Z" transform="translate(119 1)"/><path class="cls-29" d="M100.72,368a48.22,48.22,0,0,0,11.64-.18c1.78-.24,3.53-.67,5.3-.95a5.54,5.54,0,0,1,4.24.6c1.59,1.1,3.09-1.5,1.52-2.59-3.06-2.12-6.88-.77-10.2-.2a45.93,45.93,0,0,1-12.5.32c-1.92-.21-1.9,2.79,0,3Z" transform="translate(119 1)"/><path class="cls-29" d="M538.56,289.47a8.91,8.91,0,0,1,5-.47c1.85.4,3.42,1.5,5.2,2.1,3.48,1.16,7.38.46,11,.32a165,165,0,0,1,23.2.76c3.87.4,7.74.94,11.58,1.63,3.5.62,7,1.55,10.5,2,3.11.39,6.41.23,9.11-1.53A17.07,17.07,0,0,1,616,293c.76-.37,1-.13,1.64.39a6,6,0,0,0,4.11,1.69,31.36,31.36,0,0,0,6.15-1l6.24-1.25,13.45-2.69c1.89-.37,1.09-3.27-.8-2.89-7.81,1.56-15.6,3.28-23.44,4.68a6.61,6.61,0,0,1-2.17.14,3.35,3.35,0,0,1-1.69-1,4,4,0,0,0-4.33-.93c-1.31.52-2.3,1.57-3.57,2.16a10.35,10.35,0,0,1-5,.7c-3.49-.21-6.94-1.24-10.36-1.87q-5.67-1.05-11.41-1.7a164.81,164.81,0,0,0-23.19-1c-2.23.06-4.45.2-6.68.31a14.14,14.14,0,0,1-5.82-.61c-1.9-.74-3.56-1.79-5.62-2.1a11.64,11.64,0,0,0-5.76.62c-1.79.67-1,3.57.79,2.89Z" transform="translate(119 1)"/><path class="cls-29" d="M540.86,314.05a3.26,3.26,0,0,1,3.52-.16c1.3.79,1.88,1.93,3.61,1.82a19.12,19.12,0,0,0,4.65-1.38c1.63-.57,3.27-1.13,4.94-1.57a15.44,15.44,0,0,1,9.6.22c2.8,1,5.9,1.32,7.87-1.33,1.16-1.56-1.45-3-2.59-1.52-.81,1.1-2.64.58-3.69.24a24,24,0,0,0-4.5-1.23,22.23,22.23,0,0,0-9.21,1.22c-1.51.47-3,1-4.5,1.51a21.94,21.94,0,0,1-2.34.75c-.81.18-1-.32-1.59-.8a6.24,6.24,0,0,0-7.29-.36c-1.61,1.05-.1,3.65,1.52,2.59Z" transform="translate(119 1)"/><path class="cls-29" d="M693.6,288.48a16.18,16.18,0,0,0,12,1.49,1.5,1.5,0,0,0-.8-2.9,12.93,12.93,0,0,1-9.66-1.18,1.54,1.54,0,0,0-2.06.54,1.52,1.52,0,0,0,.54,2.05Z" transform="translate(119 1)"/><path class="cls-29" d="M697.58,303.11l.14-.21c-.11.14-.11.14,0,0l.35-.34c-.28.23.13-.06.2-.1s.53-.22.19-.1a5.62,5.62,0,0,1,.83-.22c-.39.07.14,0,.22,0s.33,0,.5,0,.16,0,0,0l.24,0,.48.12s.42.18.1,0a3.55,3.55,0,0,1,.43.23c.07,0,.45.36.19.12l.35.33c.1.13.1.13,0,0a2.39,2.39,0,0,1,.13.21,3.68,3.68,0,0,1,.23.44,1.44,1.44,0,0,0,1.29.74l4.15-.43a1.53,1.53,0,0,0,1.5-1.5,1.51,1.51,0,0,0-1.5-1.5l-4.15.43,1.3.75c-1.66-3.83-7.57-3.93-9.72-.57a1.5,1.5,0,1,0,2.59,1.52Z" transform="translate(119 1)"/><path class="cls-29" d="M547.77,342.32c.32-1.74,1.89-2.59,3.44-3.16a25,25,0,0,1,6.8-1.57,7.17,7.17,0,0,1,5.64,1.69c1.48,1.49,1.13,3.75,2.11,5.5,2.31,4.12,8.52,2.56,12.06,1.38,4.76-1.6,9.36-3.13,14.41-3.55a46.46,46.46,0,0,1,16.55,1.58,1.5,1.5,0,0,0,.8-2.89,50.64,50.64,0,0,0-31.05,1.44c-2.46.87-5.06,1.82-7.72,1.66a2.78,2.78,0,0,1-2.46-1.13,18.23,18.23,0,0,1-.83-3.21c-1.5-4.69-6.7-5.94-11.06-5.3-4,.6-10.68,1.91-11.58,6.76-.35,1.89,2.54,2.7,2.89.8Z" transform="translate(119 1)"/><path class="cls-29" d="M698.48,340.7c2.56-.22,4.78,1.36,7.2,1.91s4.93.37,6.64-1.44c1.33-1.41-.79-3.53-2.12-2.12a2.6,2.6,0,0,1-1.86.82,7.07,7.07,0,0,1-2.73-.39c-2.36-.76-4.58-2-7.13-1.78a1.54,1.54,0,0,0-1.5,1.5,1.51,1.51,0,0,0,1.5,1.5Z" transform="translate(119 1)"/><path class="cls-29" d="M888.13,284.29,900,282.44c1.9-.29,9.55-2.47,9.36,1.29a1.52,1.52,0,0,0,1.5,1.5c9.5.07,18.56-3.16,28-3.93a35.33,35.33,0,0,1,12.46.93,21,21,0,0,1,5.45,2.39c1.64,1,3.1,2.35,5.08,2.65a9.23,9.23,0,0,0,5.55-1.33c1.51-.75,3.24-1.94,5-1.54s2.68-2.48.8-2.9c-3.69-.82-6.17,1.92-9.5,2.73-1.95.48-3.39-.87-4.91-1.88a23.56,23.56,0,0,0-5.54-2.66c-8.39-2.83-17.41-1.26-25.86.41-5.45,1.07-10.91,2.17-16.5,2.13l1.5,1.5a4.85,4.85,0,0,0-3-4.55c-2.14-1-4.55-.51-6.78-.16l-15.28,2.38c-1.9.29-1.09,3.19.8,2.89Z" transform="translate(119 1)"/><path class="cls-29" d="M890.34,308.74a16.72,16.72,0,0,1,12.79,0c2,.85,3.48,2.27,5.28,3.45,2.25,1.48,4.07.35,6.16-.76,4.52-2.4,9.67-3.5,14.72-4.14a81.66,81.66,0,0,1,16.32-.43,80.5,80.5,0,0,1,17.93,3.44c1.85.57,2.64-2.33.8-2.9A83.54,83.54,0,0,0,931.61,304a55,55,0,0,0-15.42,3.36,34.73,34.73,0,0,0-3.33,1.56c-1,.54-1.84,1.38-2.94.65-.86-.59-1.61-1.34-2.48-1.92a18.42,18.42,0,0,0-3.16-1.68,19.37,19.37,0,0,0-14.73-.16c-1.77.73-1,3.63.79,2.9Z" transform="translate(119 1)"/><path class="cls-29" d="M889.52,342.16c-.66,4.65,4.86,5.34,8.25,5.2a59.82,59.82,0,0,0,7.89-.84c1.39-.24,2.76-.53,4.12-.87.48-.12,2.67-.84,2.63.16-.07,1.93,2.93,1.93,3,0,.08-2.32-2.15-3.66-4.26-3.48a29.39,29.39,0,0,0-3.68.78c-1.29.29-2.6.53-3.92.73a47.22,47.22,0,0,1-7.69.56c-.67,0-3.61-.31-3.45-1.45a1.54,1.54,0,0,0-1-1.84,1.5,1.5,0,0,0-1.84,1.05Z" transform="translate(119 1)"/><path class="cls-29" d="M933.64,344.77c3.86,1.7,7.87,1.49,12,.92s8.21-1.46,12.24-.4a1.5,1.5,0,0,0,.8-2.89c-3.95-1-8-.46-11.93.12-3.78.56-7.93,1.25-11.56-.34-1.75-.76-3.28,1.82-1.51,2.59Z" transform="translate(119 1)"/><path class="cls-29" d="M981.1,343.93c1.81,2.26,4.82,2.82,7.56,2.42,3.13-.45,5.75-2.29,8.54-3.63,6-2.89,12.47-.21,17,4.21,1.37,1.35,3.5-.77,2.12-2.12-4.36-4.3-10.55-7.33-16.77-6.06-3.24.67-5.89,2.71-8.9,4-2.4,1-5.59,1.35-7.39-.9-1.2-1.51-3.31.63-2.12,2.12Z" transform="translate(119 1)"/><path class="cls-29" d="M1052.73,278.72h10.15a1.5,1.5,0,0,0,0-3h-10.15a1.5,1.5,0,0,0,0,3Z" transform="translate(119 1)"/><path class="cls-29" d="M1055.27,306.64H1061a1.5,1.5,0,0,0,0-3h-5.71a1.51,1.51,0,0,0-1.5,1.5,1.53,1.53,0,0,0,1.5,1.5Z" transform="translate(119 1)"/><path class="cls-29" d="M1054.39,346.54a27,27,0,0,1,11.31-.17,1.54,1.54,0,0,0,1.84-1.05,1.52,1.52,0,0,0-1-1.85,30.61,30.61,0,0,0-12.89.18,1.5,1.5,0,0,0,.79,2.89Z" transform="translate(119 1)"/><path class="cls-30" d="M1543.42,287a27.67,27.67,0,0,0,14,.12c4.46-1,8.76-2.68,13.27-3.52,4-.74,8.59-.85,12.31,1.18,3.39,1.85,5.88,5.23,10.06,5.27,4.33,0,7.94-3.55,12.28-3,1.91.25,1.89-2.76,0-3-3.82-.49-7,1.9-10.56,2.77-4.21,1-6.79-2.68-10.09-4.54-7.78-4.39-16.84-1.15-24.72,1.08-5.24,1.47-10.42,2.28-15.75.74a1.5,1.5,0,0,0-.8,2.89Z" transform="translate(119 1)"/><path class="cls-30" d="M1629.48,283l10.78.66a1.51,1.51,0,0,0,1.5-1.5,1.53,1.53,0,0,0-1.5-1.5l-10.78-.66a1.51,1.51,0,0,0-1.5,1.5,1.53,1.53,0,0,0,1.5,1.5Z" transform="translate(119 1)"/><path class="cls-30" d="M1548.29,315.66c2.41-.29,5.14-.69,7.34.59a8.4,8.4,0,0,0,3.3,1.47,13.06,13.06,0,0,0,4.14-.6l17.83-4c1.88-.42,1.09-3.31-.8-2.89l-17.35,3.87c-1.15.26-2.67.9-3.84.55s-2.08-1.27-3.21-1.69c-2.36-.87-5-.62-7.41-.32-1.89.23-1.91,3.24,0,3Z" transform="translate(119 1)"/><path class="cls-30" d="M1595.69,312.59c1,1.67,2.92,2,4.73,1.69a8.93,8.93,0,0,0,2.51-1,6,6,0,0,1,2.46-1c1.31-.05,2.52,1.26,3.54,2a4.69,4.69,0,0,0,4.35,1,1.54,1.54,0,0,0,1-1.85,1.5,1.5,0,0,0-1.84-1,1,1,0,0,1-1,0,8.12,8.12,0,0,1-1.64-1.07,8.33,8.33,0,0,0-3.61-1.92c-1.94-.32-3.57.63-5.22,1.49-.8.41-2.34.94-2.79.2a1.5,1.5,0,0,0-2.59,1.52Z" transform="translate(119 1)"/><path class="cls-30" d="M1639,315.52h4.44a1.5,1.5,0,0,0,0-3H1639a1.5,1.5,0,0,0,0,3Z" transform="translate(119 1)"/><path class="cls-30" d="M1637.72,349.15h7.61a1.5,1.5,0,0,0,0-3h-7.61a1.5,1.5,0,0,0,0,3Z" transform="translate(119 1)"/><path class="cls-30" d="M1638.35,379.6h6.35a1.5,1.5,0,0,0,0-3h-6.35a1.5,1.5,0,0,0,0,3Z" transform="translate(119 1)"/><path class="cls-30" d="M1551.9,344.54c3.31,2.12,6.81-.14,10.18-.78,4-.75,8,1.37,11.4,3.14,1.71.89,3.23-1.7,1.52-2.59-3.53-1.83-7.32-3.72-11.39-3.68a18,18,0,0,0-5.42,1.14c-1.55.49-3.29,1.13-4.78.18s-3.14,1.55-1.51,2.59Z" transform="translate(119 1)"/><path class="cls-30" d="M1593.3,347.25H1620a1.5,1.5,0,0,0,0-3H1593.3a1.5,1.5,0,0,0,0,3Z" transform="translate(119 1)"/><path class="cls-30" d="M1550.16,378.34H1559a1.5,1.5,0,0,0,0-3h-8.88a1.51,1.51,0,0,0-1.5,1.5,1.53,1.53,0,0,0,1.5,1.5Z" transform="translate(119 1)"/><path class="cls-30" d="M1571.74,379.17q15.52-.85,31.09-.37c1.93.05,1.93-2.95,0-3q-15.55-.48-31.09.37c-1.92.1-1.93,3.11,0,3Z" transform="translate(119 1)"/><path class="cls-30" d="M1833.77,282.53h4.44a1.51,1.51,0,0,0,1.5-1.5,1.53,1.53,0,0,0-1.5-1.5h-4.44a1.51,1.51,0,0,0-1.5,1.5,1.53,1.53,0,0,0,1.5,1.5Z" transform="translate(119 1)"/><path class="cls-30" d="M1834.18,306.63l.51-.1-.4.06a4.83,4.83,0,0,1,1.42,0l-.4-.06a5.91,5.91,0,0,1,1.31.36l-.36-.15a3.92,3.92,0,0,1,.58.29,1.5,1.5,0,1,0,1.52-2.59,6.77,6.77,0,0,0-5-.7,1.52,1.52,0,0,0-1.05,1.84,1.53,1.53,0,0,0,1.85,1.05Z" transform="translate(119 1)"/><path class="cls-30" d="M1830,346.61h9.52a1.5,1.5,0,0,0,0-3H1830a1.5,1.5,0,0,0,0,3Z" transform="translate(119 1)"/><path class="cls-30" d="M1742.41,280.51a262.2,262.2,0,0,1,30.82,1.63q7.59.86,15.13,2.16c5,.86,10,1.85,15,2.45a54.36,54.36,0,0,0,16.89-.3c1.9-.36,1.1-3.25-.79-2.89-10,1.91-20-.36-29.83-2.07a266.52,266.52,0,0,0-30.07-3.53c-5.71-.34-11.43-.48-17.15-.45a1.5,1.5,0,0,0,0,3Z" transform="translate(119 1)"/><path class="cls-30" d="M1743,311.74l6.23-.05c1,0,1.91,0,2.87,0a2.18,2.18,0,0,1,1.29.2c.32.23.47.71.69,1,2.12,3.1,6.25,1.74,9.24,1.06,7.93-1.81,15.79-4.18,23.9-5.11A48.65,48.65,0,0,1,1801,309c1.89.32,2.7-2.57.8-2.89-8.11-1.38-16.24-.36-24.21,1.36-4.11.89-8.17,1.95-12.26,2.93-1.95.47-3.9,1-5.87,1.32a4.88,4.88,0,0,1-2,.07c-.84-.22-1-1-1.52-1.65-1.39-1.79-3.69-1.49-5.71-1.48l-7.18.06a1.5,1.5,0,0,0,0,3Z" transform="translate(119 1)"/><path class="cls-30" d="M1740.93,352.44a126.5,126.5,0,0,1,12.59-1.38c1.65-.09,4-.58,5.42.41a47.72,47.72,0,0,0,3.83,2.92c6.1,3.33,13.26,1.87,19.41-.43,3.84-1.42,8-3.16,12.06-1.5,1.79.73,2.56-2.17.8-2.9-7.2-3-14.35,2.81-21.41,3.64a15.56,15.56,0,0,1-9.5-1.49c-1.48-.83-2.53-2.2-4-3-1.66-.93-3.59-.78-5.41-.69a130,130,0,0,0-14.6,1.55c-1.9.3-1.1,3.19.8,2.89Z" transform="translate(119 1)"/><path class="cls-31" d="M955.4,590.84c-.81-1.64,1.33-2.83,2.66-2.79,2.19.07,3.71,1.74,5.63,2.53,4.2,1.72,7.87-1.49,10-4.8,1-1.51,2.48-3.71,1-5.39a4.29,4.29,0,0,0-2.23-1.08,28.6,28.6,0,0,0-3.4-.84,2.63,2.63,0,0,0-3.17,3,6.87,6.87,0,0,0,2.44,4.54c3.36,2.86,7.66,2.51,11.75,1.92a36.53,36.53,0,0,1,13.86.45c1.77.42,3.74.17,4.05-2a7.57,7.57,0,0,0-1.29-5c-2-3-6.22-5-9.61-3s-3.1,6.45-4.69,9.62a10.24,10.24,0,0,1-9.92,5.5c-1.93-.16-1.92,2.85,0,3A13.19,13.19,0,0,0,986,586.86c.57-2,.87-5.75,3.45-6.25a4.66,4.66,0,0,1,3.91,1.38,5.79,5.79,0,0,1,1.19,1.64,19.68,19.68,0,0,1,.5,2.24l.46-.25a1.37,1.37,0,0,1-.53-.08c-.46-.08-.92-.22-1.37-.32-.9-.18-1.81-.33-2.72-.45a36.46,36.46,0,0,0-6.09-.32c-3.67.13-7.49,1.43-11.15.82a6.56,6.56,0,0,1-3.7-1.86,3.9,3.9,0,0,1-1-1.66l-.07-.34c0-.39-.06-.39-.29,0a14.43,14.43,0,0,0,1.69.43l1.37.36.45.12c.34.19.41.13.22-.19,0,.6-.89,1.64-1.21,2.13a8.44,8.44,0,0,1-3.57,3.48c-2.08.86-3.47-.41-5.2-1.4a8.48,8.48,0,0,0-5.49-1.2c-3.33.54-5.6,4.06-4,7.21.86,1.73,3.45.21,2.59-1.51Z" transform="translate(119 1)"/><path class="cls-31" d="M967.65,593.7c-3.2,1.12-4.74-3.79-5.71-5.91l-2.07-4.5c-.61-1.33-1.15-2.75-2.49-3.51-2.33-1.33-6.11-.68-8.29.68a6.94,6.94,0,0,0-3.26,7.06,1.48,1.48,0,0,0,1.44,1.1c5.73-.46,10.63-3.45,15.58-6.11s10.16-4.79,15.74-2.82c6,2.1,9.62,7.42,14.57,11a13.59,13.59,0,0,0,8.79,2.82,19.87,19.87,0,0,0,5-1,9.88,9.88,0,0,0,4-2c2.36-2.39.31-5.69-1.45-7.73a15.17,15.17,0,0,0-3.21-2.77,9,9,0,0,0-4.41-1.74c-1.56,0-2.6,1.08-3.49,2.22a40.14,40.14,0,0,0-2.66,3.91c-1.47,2.41-3.1,5.78-5.68,7.19-1.56.86-2.32-.78-2.19-2.16a5.31,5.31,0,0,1,2.45-3.75,17.75,17.75,0,0,1,8.62-2.74,22.8,22.8,0,0,1,8.94,1.1,24.77,24.77,0,0,1,7.89,4.68c2.42,2,4.84,4,7.85,5a18,18,0,0,0,9.92.11c2.66-.65,6.76-1.62,7.12-4.9.31-2.89-2-5.58-3.89-7.46a20.81,20.81,0,0,0-7.55-4.72,4.43,4.43,0,0,0-4.32.24,14.79,14.79,0,0,0-3.1,3.91c-1.72,2.62-2.87,5.48-4.42,8.19-1.27,2.24-3.61,4.27-6,2-2.06-1.91-1.84-7,1.06-8.09a7.53,7.53,0,0,1,4,0,38.77,38.77,0,0,1,5.09,1.42c3.24,1.13,6.33,2.59,9.44,4,2.85,1.31,6.07,3.24,9.27,3.34,5.78.18,10.13-6.79,7.84-12a5.36,5.36,0,0,0-6.49-3.06c-2.88,1-3.44,4.16-2.28,6.65,1.26,2.71,3.93,4.65,6.39,6.23a31.14,31.14,0,0,0,8.6,3.82c2.4.65,6.17,1.75,8.05-.53,1-1.25.85-2.9.7-4.4-.16-1.66-.19-3.81-.95-5.32-1.57-3.11-5.47-.45-7.3.92a34.73,34.73,0,0,0-6.39,6.65,13.87,13.87,0,0,1-3,3.17,10.37,10.37,0,0,1-4.72,1.33,20.76,20.76,0,0,1-8-.67,11,11,0,0,1-6.14-4.32c-1.06-1.6-3.66-.1-2.59,1.51,2.93,4.44,8.06,6.31,13.19,6.56a20.64,20.64,0,0,0,7.93-.93c2.92-1.08,4.61-3.47,6.48-5.8a25.4,25.4,0,0,1,6.11-5.82c.37-.24,1.56-1.16,2-1.05-.32-.08-.06-.22-.12.23a5.48,5.48,0,0,0,.24,1.38c.13.8.23,1.59.3,2.39,0,.49.35,1.89-.05,2.3-.63.67-2.6,0-3.32-.11a28.92,28.92,0,0,1-4.73-1.42,27.58,27.58,0,0,1-7.44-4.45A8.53,8.53,0,0,1,1042,582c-.41-1-.28-2.22,1-2.4,2.9-.41,3.09,3.56,2.42,5.4-.82,2.24-3,4.16-5.52,3.84a16.76,16.76,0,0,1-4.27-1.53c-1.57-.68-3.11-1.4-4.66-2.11-2.81-1.29-5.63-2.57-8.54-3.58s-5.95-2-8.91-1.79a6.55,6.55,0,0,0-6,4.91,8.46,8.46,0,0,0,1.36,8.13,6.28,6.28,0,0,0,7.24,1.72c2.17-1,3.5-3.13,4.52-5.18a59.22,59.22,0,0,1,4.53-8.08,8,8,0,0,1,1.3-1.71c.65-.5,1.25-.21,2,0a17.48,17.48,0,0,1,4,2.08c2,1.36,4.76,3.72,5.25,6.22.3,1.52-1.24,1.82-2.39,2.24a21.07,21.07,0,0,1-4.89,1.2,13.17,13.17,0,0,1-8.54-1.83c-2.56-1.58-4.68-3.77-7.15-5.47a24.77,24.77,0,0,0-16.13-4.13c-5.1.47-12.48,2.61-13.55,8.5-.46,2.56.6,5.78,3.44,6.36s5.34-2.26,6.89-4.3c1.67-2.2,2.95-4.67,4.51-7a17.07,17.07,0,0,1,1.31-1.73c.66-.73,1.11-.56,2-.18a12,12,0,0,1,3.5,2.38,9.38,9.38,0,0,1,2.29,3.12c.61,1.6-1.38,2-2.53,2.39-3,1-6.17,1.52-9.15.13a25.68,25.68,0,0,1-6.57-5.07,46.07,46.07,0,0,0-6.5-5.41,18.2,18.2,0,0,0-15.84-2.36c-5,1.59-9.3,4.66-14,6.82a20.73,20.73,0,0,1-7,2l1.45,1.1c-.4-2.51,2.11-4.2,4.29-4.51,1.19-.17,2.77-.3,3.45.85a41.66,41.66,0,0,1,1.81,3.89c1.79,3.89,4.34,11.69,10.18,9.65,1.81-.64,1-3.54-.8-2.9Z" transform="translate(119 1)"/><path class="cls-31" d="M1015.08,585A21.32,21.32,0,0,0,1004,576.7c-1.83-.59-5.25-1.71-6.82-.15a3.5,3.5,0,0,0-.76,2.93c.13,1.49.28,3,.42,4.47.44,4.56.78,9.83,4.87,12.73a11.36,11.36,0,0,0,6.59,1.83c2,0,4.89-.08,6.36-1.63s.92-4.5,0-6.35a11.08,11.08,0,0,0-4.32-4.53c-4.48-2.69-9.8-2.11-14.59-.64-5.5,1.68-10.76,4-16.37,5.32a47,47,0,0,1-8.33,1.3,13.66,13.66,0,0,1-6.55-.88c-2.18-1-2.78-2.93-3.43-5.1a10,10,0,0,0-3.79-5.63,18.9,18.9,0,0,0-6.54-2.88c-2.79-.6-4.68,1.19-6.23,3.28a16.1,16.1,0,0,0-3,6.69c-.44,2.6,1.46,3.77,3.78,4,5.47.44,10.84-1.42,15.86-3.39a143.62,143.62,0,0,1,15.86-5.5,114,114,0,0,1,16.51-3.07,144.78,144.78,0,0,1,33.61.4c5.79.71,11.5,1.95,17.3,2.62a46.87,46.87,0,0,0,8.86.27c2.81-.21,5.89-1.32,8.68-.68a8.11,8.11,0,0,1,4.8,3.82,20.32,20.32,0,0,1,1.44,2.73c.36.85,1.41,2.68.56,3.4a9.25,9.25,0,0,1-2.91,1.32,6,6,0,0,1-3.14.38,3.26,3.26,0,0,1-2.12-2.21c-.63-1.45-1.13-3-1.68-4.44l-3.17-8.41c-.67-1.79-3.57-1-2.89.8l3.08,8.17c.86,2.28,1.5,5,3,7a5.82,5.82,0,0,0,5.48,2.1,13.53,13.53,0,0,0,6.12-2.31c2.06-1.56,1.65-3.81.81-5.95a20.81,20.81,0,0,0-3.06-5.56,10.6,10.6,0,0,0-4.86-3.54c-2.43-.82-5-.33-7.47.06-5.63.9-11.31.19-16.89-.74-5.26-.87-10.5-1.73-15.8-2.26a141.22,141.22,0,0,0-31.57.25,122.19,122.19,0,0,0-30.29,8c-4.78,1.91-9.79,3.88-15,3.76a4.18,4.18,0,0,1-1.7-.14c-.41-.24-.33,0-.2-.62a14.33,14.33,0,0,1,3.22-6.21,3.57,3.57,0,0,1,1.24-1,3.36,3.36,0,0,1,2.27.35c1.91.69,4,1.46,5.41,3,1.58,1.72,1.64,4.28,2.65,6.32,1.9,3.84,6.43,4.93,10.38,4.91a53,53,0,0,0,15.42-2.83c5.1-1.6,10.1-4.06,15.41-4.91,4.09-.65,9,.34,11.22,4.18a5.41,5.41,0,0,1,.79,2.56c0,.54,0,.77-.49,1a5.72,5.72,0,0,1-1.7.35,10.57,10.57,0,0,1-6.4-.8c-4.06-2.23-3.91-8.05-4.29-12l-.18-1.88a7,7,0,0,0-.16-1.9v-.16q-.51.25-.06.21c.17.1.55,0,.76.07a16.74,16.74,0,0,1,1.85.35,18.38,18.38,0,0,1,6,2.71,17.5,17.5,0,0,1,4.54,4.54c1.08,1.58,3.69.08,2.59-1.52Z" transform="translate(119 1)"/><path class="cls-32" d="M959.48,573.28l-3.83.07a11.11,11.11,0,0,0-3.59.35c-1.87.7-2.87,2.75-3.15,4.62a7.85,7.85,0,0,0,5.85,8.85c3.84.89,6.87-1.13,9.29-3.92,2-2.31,4.5-6,8-3.78,2.17,1.36,3,4,3.43,6.35a44.18,44.18,0,0,1,.84,8.74l1.1-1.45a20.17,20.17,0,0,1-5.87,1c-.92,0-4.48.13-4.11-1.61a1.52,1.52,0,0,0-1.45-1.89,30.67,30.67,0,0,0-14.2,2.56l1.82,2.36c4.35-4.2,10-7,15.54-9.3s11.9-4.1,17.43-.84c2.42,1.42,4.58,3.24,7.27,4.16a12.09,12.09,0,0,0,8-.14c2.29-.86,5.39-2.61,4.22-5.51a11.87,11.87,0,0,0-2.7-3.49,15.81,15.81,0,0,0-3.49-2.83c-3.09-1.63-5.26,1.68-6.93,3.79a28.75,28.75,0,0,0-4.76,7.57c-.91,2.46-.76,5.36,1.48,7.05,2.06,1.56,4.81,1.34,7.22,1a33.77,33.77,0,0,0,15.7-6.84c2.44-1.92,4.53-4.22,6.85-6.27a30.39,30.39,0,0,1,7.5-4.87c5.2-2.4,12.73-4.21,18-1,1.07.67,2.37,1.74,2.53,3.09.19,1.58-2.51,1.64-3.58,1.81-1.67.26-7.27,1.3-7.7-1.33l-.69,1.69c3.52-1.88,7.64-.12,10.58,2.05,3.24,2.39,5.89,5.51,9.38,7.55,3.11,1.82,7.1,3,10.58,1.52a8.42,8.42,0,0,0,5.22-7.08,5.44,5.44,0,0,0-6.54-5.75c-3.52.69-6.58,3.48-9.26,5.68s-5.56,4.58-9.08,5.39a16.54,16.54,0,0,1-11.07-1.71c-3.44-1.77-7-5.65-11.23-4.07-1.82.67-3,2.15-4.55,3.23a7,7,0,0,1-5.93.93,1.5,1.5,0,0,0-.8,2.89,10.13,10.13,0,0,0,9.41-2.13c1.14-.95,2.29-2.28,3.9-2.28s3.38,1.29,4.74,2.22c5.85,4,13.21,5.77,19.83,2.54,3-1.48,5.52-3.78,8.1-5.87,1.74-1.41,6.84-5.88,8.91-3.14,1.72,2.26-.53,5.42-2.69,6.36-3.29,1.42-7.16-.55-9.79-2.48-3.34-2.46-6.06-5.75-9.74-7.77s-7.82-2.63-11.48-.67a1.54,1.54,0,0,0-.69,1.69c.9,5.55,10.23,4,13.77,3,2.64-.75,4-3,3.1-5.7-.88-2.45-3.19-4.14-5.52-5.1-4.93-2-10.76-1.22-15.68.45-5.71,1.94-10.25,5.36-14.54,9.51a33.49,33.49,0,0,1-14.86,8.86c-2.18.58-5.31,1.5-7.51.56-2.82-1.19-.69-5,.38-6.65.83-1.3,1.72-2.57,2.67-3.78.43-.53.86-1.06,1.31-1.58s1-1.55,1.59-1.72c1-.29,2.81,1.86,3.43,2.49a18.53,18.53,0,0,1,1.43,1.63c.65.87.47,1-.4,1.51a9.29,9.29,0,0,1-7.61.9c-2.61-.84-4.72-2.79-7.08-4.12-6-3.39-12.88-2-18.94.54s-12.48,5.59-17.32,10.27c-1.32,1.27.35,3,1.81,2.35a27.62,27.62,0,0,1,12.69-2.15l-1.44-1.9c-.62,2.92,1.76,4.88,4.44,5.26a21.43,21.43,0,0,0,9.23-1,1.54,1.54,0,0,0,1.1-1.44c0-4.38-.32-9.31-2.13-13.37-1.53-3.41-5.08-6.24-9-5.18-3,.82-4.82,3.63-6.84,5.82a7,7,0,0,1-3.74,2.49,4.82,4.82,0,0,1-5.21-7c.63-1.09,1.7-.91,2.82-.94l4.31-.08c1.93,0,1.94-3,0-3Z" transform="translate(119 1)"/><path class="cls-32" d="M1111.31,580.64a62.52,62.52,0,0,1,13.17,3.61,1.51,1.51,0,0,0,1.85-1,1.54,1.54,0,0,0-1-1.85,62.69,62.69,0,0,0-13.17-3.61,1.53,1.53,0,0,0-1.84,1,1.5,1.5,0,0,0,1,1.84Z" transform="translate(119 1)"/><path class="cls-32" d="M1126.42,582.21a23,23,0,0,0,11,4,1.5,1.5,0,0,0,1.5-1.5,1.54,1.54,0,0,0-1.5-1.5,17.33,17.33,0,0,1-2.42-.39,23,23,0,0,1-2.57-.76,20.4,20.4,0,0,1-4.53-2.41,1.53,1.53,0,0,0-2.06.54,1.54,1.54,0,0,0,.54,2.05Z" transform="translate(119 1)"/><path class="cls-32" d="M1118.89,587.48a55.5,55.5,0,0,1,12.07-2.17,1.54,1.54,0,0,0,1.5-1.5,1.52,1.52,0,0,0-1.5-1.5,58.59,58.59,0,0,0-12.87,2.28c-1.85.55-1.06,3.44.8,2.89Z" transform="translate(119 1)"/><path class="cls-32" d="M1138.47,594.67l6.51-2.76a1.42,1.42,0,0,0,.68-.89,1.52,1.52,0,0,0-.15-1.16,1.5,1.5,0,0,0-.89-.69,1.86,1.86,0,0,0-1.16.15l-6.51,2.76a1.52,1.52,0,0,0-.69.9,1.54,1.54,0,0,0,.16,1.15,1.47,1.47,0,0,0,.89.69,1.73,1.73,0,0,0,1.16-.15Z" transform="translate(119 1)"/><path class="cls-32" d="M1157.74,582.62q8.64-.39,17.28-.23c1.93,0,1.93-3,0-3q-8.64-.17-17.28.23c-1.92.08-1.93,3.08,0,3Z" transform="translate(119 1)"/><path class="cls-32" d="M1184.71,592q5.64-1,11.23-2.2a1.52,1.52,0,0,0,1-1.84,1.53,1.53,0,0,0-1.85-1.05q-5.6,1.22-11.23,2.19a1.52,1.52,0,0,0-1.05,1.85,1.54,1.54,0,0,0,1.85,1Z" transform="translate(119 1)"/><path class="cls-32" d="M1167.26,591.93a55.9,55.9,0,0,0,8.65-.9,1.52,1.52,0,0,0,1-1.85,1.54,1.54,0,0,0-1.85-1c-.68.12-1.36.23-2,.33l-.23,0-.48.06-1,.12c-1.35.13-2.7.21-4.06.25a1.5,1.5,0,0,0,0,3Z" transform="translate(119 1)"/><path class="cls-32" d="M1151.75,591.25a29.17,29.17,0,0,0,8.12-2,1.54,1.54,0,0,0,1-1.84,1.5,1.5,0,0,0-1.84-1,28.42,28.42,0,0,1-3.72,1.23c-.62.16-1.25.29-1.88.41l-1,.16-.16,0-.57.06a1.5,1.5,0,0,0,0,3Z" transform="translate(119 1)"/><path class="cls-32" d="M1140.66,579.68a28.94,28.94,0,0,0,10.64,7.49,1.51,1.51,0,0,0,1.85-1,1.54,1.54,0,0,0-1.05-1.84l-.49-.21-.68-.32c-.45-.22-.89-.45-1.33-.69a29.35,29.35,0,0,1-2.54-1.61,21.9,21.9,0,0,1-2.1-1.69,26.49,26.49,0,0,1-2.17-2.2,1.5,1.5,0,1,0-2.13,2.12Z" transform="translate(119 1)"/><path class="cls-32" d="M1133.71,589.14H1145a1.5,1.5,0,0,0,0-3h-11.27a1.5,1.5,0,0,0,0,3Z" transform="translate(119 1)"/><path class="cls-32" d="M1128.7,593.82q6.13-.35,12.27-.16c1.93.06,1.93-2.94,0-3q-6.13-.18-12.27.16a1.54,1.54,0,0,0-1.5,1.5,1.51,1.51,0,0,0,1.5,1.5Z" transform="translate(119 1)"/><path class="cls-32" d="M1154.5,578.12a31.45,31.45,0,0,0,1.73,11.94,1.54,1.54,0,0,0,1.85,1.05,1.52,1.52,0,0,0,1.05-1.85,29.28,29.28,0,0,1-1.63-11.14,1.5,1.5,0,1,0-3,0Z" transform="translate(119 1)"/><path class="cls-32" d="M1167.26,582.13v8.76a1.51,1.51,0,0,0,1.5,1.5,1.53,1.53,0,0,0,1.5-1.5v-8.76a1.51,1.51,0,0,0-1.5-1.5,1.53,1.53,0,0,0-1.5,1.5Z" transform="translate(119 1)"/><path class="cls-32" d="M1157.75,597.65l5.5-.55a1.61,1.61,0,0,0,1.06-.44,1.5,1.5,0,0,0,.44-1.06,1.53,1.53,0,0,0-1.5-1.5l-5.5.55a1.63,1.63,0,0,0-1.07.44,1.49,1.49,0,0,0-.43,1.06,1.52,1.52,0,0,0,1.5,1.5Z" transform="translate(119 1)"/><path class="cls-32" d="M1184.19,591.5a24,24,0,0,1,1.55-12.22,1.51,1.51,0,0,0-1-1.85,1.54,1.54,0,0,0-1.85,1.05,26.91,26.91,0,0,0-1.54,13.82,1.5,1.5,0,0,0,2.89-.8Z" transform="translate(119 1)"/><path class="cls-32" d="M1175.27,579.16l13,5.59a1.54,1.54,0,0,0,2-.53,1.52,1.52,0,0,0-.54-2.06l-13-5.59a1.55,1.55,0,0,0-2,.54,1.51,1.51,0,0,0,.54,2Z" transform="translate(119 1)"/><path class="cls-32" d="M1205.68,586.22a91.51,91.51,0,0,1,9.22,2.2,1.5,1.5,0,1,0,.79-2.89,90.68,90.68,0,0,0-9.21-2.2,1.5,1.5,0,1,0-.8,2.89Z" transform="translate(119 1)"/><path class="cls-32" d="M1205.81,591.14h10.51a1.5,1.5,0,0,0,0-3h-10.51a1.5,1.5,0,0,0,0,3Z" transform="translate(119 1)"/><path class="cls-32" d="M1197,593.14c0-.12,0-.23,0-.35a1.1,1.1,0,0,0,0-.18c0-.21,0,.09,0,.14a3.86,3.86,0,0,1,.14-.74c.05-.22.12-.45.19-.67l.12-.34a1.11,1.11,0,0,1,.07-.16c.06-.17-.17.36,0,.07a9.72,9.72,0,0,1,.68-1.22c.07-.1.15-.19.21-.29-.06.1-.19.24,0,.06l.12-.14a6.51,6.51,0,0,1,.51-.54,1.53,1.53,0,0,0,0-2.13,1.55,1.55,0,0,0-2.13,0,9.75,9.75,0,0,0-2.85,6.49,1.51,1.51,0,0,0,1.5,1.5,1.53,1.53,0,0,0,1.5-1.5Z" transform="translate(119 1)"/><path class="cls-32" d="M1194.5,580.93a26,26,0,0,0,10.67,7.39,1.5,1.5,0,0,0,1.84-1.05,1.54,1.54,0,0,0-1-1.84,22.29,22.29,0,0,1-2.49-1.13,25.44,25.44,0,0,1-2.6-1.59,19.2,19.2,0,0,1-2.14-1.72,24.13,24.13,0,0,1-2.11-2.18,1.5,1.5,0,0,0-2.12,0,1.53,1.53,0,0,0,0,2.12Z" transform="translate(119 1)"/><path class="cls-32" d="M1208.28,579.38a39.72,39.72,0,0,0,4.73,5.31,1.51,1.51,0,0,0,2.12,0,1.53,1.53,0,0,0,0-2.12c-.81-.75-1.59-1.54-2.33-2.37-.36-.4-.71-.81-1.06-1.22l-.52-.65-.14-.18c0,.05.19.24.07.08s-.19-.25-.28-.37a1.67,1.67,0,0,0-.9-.69,1.53,1.53,0,0,0-1.15.15,1.48,1.48,0,0,0-.69.9,1.43,1.43,0,0,0,.15,1.16Z" transform="translate(119 1)"/><path class="cls-32" d="M1223.42,578.26a47.91,47.91,0,0,0,3.27,8.43,1.5,1.5,0,0,0,2,.54,1.53,1.53,0,0,0,.54-2.05c-.31-.63-.61-1.26-.89-1.89s-.44-1-.74-1.78c-.51-1.33-1-2.68-1.34-4a1.5,1.5,0,1,0-2.89.79Z" transform="translate(119 1)"/><path class="cls-32" d="M1240,590l-15.49-2.93a1.54,1.54,0,0,0-1.85,1,1.51,1.51,0,0,0,1,1.84l15.49,2.93a1.53,1.53,0,0,0,1.84-1,1.5,1.5,0,0,0-1-1.84Z" transform="translate(119 1)"/><path class="cls-32" d="M1225.62,593.14q-3.94-6.71-8.46-13a1.54,1.54,0,0,0-2.05-.54,1.51,1.51,0,0,0-.54,2.05q4.52,6.35,8.46,13.06a1.5,1.5,0,0,0,2.59-1.52Z" transform="translate(119 1)"/><path class="cls-33" d="M1118.35,576q-1.11,3.88-2.41,7.72a1.51,1.51,0,0,0,1,1.84,1.54,1.54,0,0,0,1.85-1q1.29-3.82,2.41-7.71a1.5,1.5,0,0,0-2.9-.8Z" transform="translate(119 1)"/><path class="cls-33" d="M1107.93,582.63h16a1.5,1.5,0,0,0,0-3h-16a1.5,1.5,0,0,0,0,3Z" transform="translate(119 1)"/><path class="cls-33" d="M1125.43,591.39a26.32,26.32,0,0,1,10.7-4.48,1.52,1.52,0,0,0,1-1.85,1.55,1.55,0,0,0-1.85-1,28.71,28.71,0,0,0-11.42,4.79,1.53,1.53,0,0,0-.53,2.05,1.5,1.5,0,0,0,2,.54Z" transform="translate(119 1)"/><path class="cls-33" d="M1146.47,580.13a43.79,43.79,0,0,0,1.51,12.68,1.5,1.5,0,0,0,2.89-.8,41,41,0,0,1-1.4-11.88c0-1.94-3-1.93-3,0Z" transform="translate(119 1)"/><path class="cls-33" d="M1163.3,591.5a27,27,0,0,1,9.1-3.49,1.51,1.51,0,0,0,1-1.84,1.54,1.54,0,0,0-1.85-1,29.64,29.64,0,0,0-9.81,3.79,1.54,1.54,0,0,0-.54,2.06,1.52,1.52,0,0,0,2,.53Z" transform="translate(119 1)"/><path class="cls-33" d="M1162.68,576.77a35.36,35.36,0,0,0,9.72,4.44,1.5,1.5,0,0,0,.8-2.89,32,32,0,0,1-9-4.14,1.51,1.51,0,0,0-2,.54,1.53,1.53,0,0,0,.54,2Z" transform="translate(119 1)"/><path class="cls-33" d="M1175.52,589.4a90.06,90.06,0,0,1,10.26.22,1.5,1.5,0,0,0,0-3,90.06,90.06,0,0,0-10.26-.22,1.5,1.5,0,0,0,0,3Z" transform="translate(119 1)"/><path class="cls-33" d="M1193.45,582.1a26.92,26.92,0,0,1,4.24-1l.25,0h.09l.49-.06,1.06-.08c.74,0,1.48-.06,2.22,0a1.5,1.5,0,0,0,1.5-1.5,1.52,1.52,0,0,0-1.5-1.5,28.16,28.16,0,0,0-9.15,1.35,1.5,1.5,0,0,0,.8,2.89Z" transform="translate(119 1)"/><path class="cls-33" d="M1209.84,584.62a63.72,63.72,0,0,1,7,3.83,1.51,1.51,0,0,0,2-.54,1.53,1.53,0,0,0-.54-2,62.08,62.08,0,0,0-7-3.83,1.53,1.53,0,0,0-2,.54,1.52,1.52,0,0,0,.54,2Z" transform="translate(119 1)"/><path class="cls-33" d="M1204.06,592.14h7.26a1.5,1.5,0,0,0,0-3h-7.26a1.5,1.5,0,0,0,0,3Z" transform="translate(119 1)"/><path class="cls-33" d="M1221.33,594.13a11.81,11.81,0,0,1,1-1.56l.15-.21c.18-.24-.23.28,0,0a4.15,4.15,0,0,1,.27-.32,7.18,7.18,0,0,1,.65-.7c.22-.22.44-.42.68-.62s.52-.36.12-.1l.37-.27a11.27,11.27,0,0,1,1.61-.94,1.51,1.51,0,0,0,.54-2.06,1.54,1.54,0,0,0-2.05-.53,12.87,12.87,0,0,0-5.85,5.75,1.5,1.5,0,1,0,2.59,1.51Z" transform="translate(119 1)"/><path class="cls-33" d="M1235.21,581.49a13.62,13.62,0,0,0,.63,7.07,1.55,1.55,0,0,0,1.85,1.05,1.53,1.53,0,0,0,1-1.85,13.4,13.4,0,0,1-.48-1.52c0-.22-.09-.45-.13-.67s-.06-.3-.08-.45l0,.17,0-.22a10.46,10.46,0,0,1,0-1.48c0-.27,0-.53,0-.8,0-.11,0-.22,0-.34s0-.15,0,.06l0-.22a1.61,1.61,0,0,0-.15-1.16,1.5,1.5,0,0,0-2.74.36Z" transform="translate(119 1)"/><path class="cls-34" d="M1114,577.26a27.38,27.38,0,0,1,3,3.11l.33.41c.13.16-.15-.2,0,0s.12.15.17.23c.21.28.42.56.62.85.42.61.81,1.23,1.18,1.87a1.51,1.51,0,0,0,2,.54,1.53,1.53,0,0,0,.54-2,28.64,28.64,0,0,0-5.73-7.05,1.5,1.5,0,0,0-2.12,2.12Z" transform="translate(119 1)"/><path class="cls-34" d="M1109.93,585.15a58.54,58.54,0,0,1,8.27.19,1.5,1.5,0,0,0,0-3,58.54,58.54,0,0,0-8.27-.19,1.5,1.5,0,0,0,0,3Z" transform="translate(119 1)"/><path class="cls-34" d="M1119.45,592.93a40,40,0,0,1,9.65-3.12,1.5,1.5,0,1,0-.8-2.89,42.78,42.78,0,0,0-10.37,3.42,1.52,1.52,0,0,0-.54,2,1.54,1.54,0,0,0,2.06.54Z" transform="translate(119 1)"/><path class="cls-34" d="M1134.51,581.29c.09,0,.16.09.25.14.24.15-.24-.21,0,0s.23.21.33.32l.19.21.09.11-.09-.12c0,.06.24.33.28.39.47.68.92,1.38,1.44,2a12.65,12.65,0,0,0,3.72,3.07,1.5,1.5,0,1,0,1.52-2.59,9.65,9.65,0,0,1-1-.59c-.17-.11-.32-.26-.5-.36.14.08.18.15,0,0l-.19-.17a10.09,10.09,0,0,1-.83-.77c-.14-.15-.28-.3-.41-.46l-.17-.19s-.25-.32-.11-.13,0-.06-.06-.1l-.18-.24-.29-.44c-.19-.29-.38-.59-.59-.87a6.24,6.24,0,0,0-1.92-1.84,1.5,1.5,0,0,0-1.52,2.59Z" transform="translate(119 1)"/><path class="cls-34" d="M1151.92,596.09a27.73,27.73,0,0,1,10.24-4.72,1.5,1.5,0,1,0-.8-2.89,30,30,0,0,0-11,5,1.55,1.55,0,0,0-.54,2,1.53,1.53,0,0,0,2.06.54Z" transform="translate(119 1)"/><path class="cls-34" d="M1161.1,581.44a45.8,45.8,0,0,0,4.09,6.47,1.72,1.72,0,0,0,.9.69,1.5,1.5,0,0,0,1.69-2.21,45.23,45.23,0,0,1-4.09-6.47,1.51,1.51,0,0,0-2-.54,1.55,1.55,0,0,0-.54,2.06Z" transform="translate(119 1)"/><path class="cls-34" d="M1178.5,580a27.15,27.15,0,0,0,2.29,7.33,1.51,1.51,0,0,0,2,.54,1.56,1.56,0,0,0,.54-2.06c-.13-.27-.25-.54-.37-.82.14.33-.07-.18-.1-.23s-.09-.24-.14-.36c-.21-.56-.4-1.13-.58-1.7a28.13,28.13,0,0,1-.8-3.5,1.5,1.5,0,0,0-1.84-1,1.54,1.54,0,0,0-1,1.85Z" transform="translate(119 1)"/><path class="cls-34" d="M1194.74,584.68l5,5.77a1.5,1.5,0,0,0,2.12,0,1.54,1.54,0,0,0,0-2.12l-5-5.77a1.5,1.5,0,1,0-2.13,2.12Z" transform="translate(119 1)"/><path class="cls-34" d="M1198.79,578.69l7.26,3.49a1.54,1.54,0,0,0,2-.54,1.51,1.51,0,0,0-.53-2l-7.27-3.5a1.54,1.54,0,0,0-2,.54,1.52,1.52,0,0,0,.54,2.06Z" transform="translate(119 1)"/><path class="cls-34" d="M1231.42,582.52a11.14,11.14,0,0,0,1.51,3.63,12.06,12.06,0,0,0,2.88,3.08,1.52,1.52,0,0,0,1.16.15,1.57,1.57,0,0,0,.89-.69,1.47,1.47,0,0,0,.15-1.16,1.78,1.78,0,0,0-.69-.89c.11.08.23.18.06,0l-.15-.11-.3-.27c-.22-.2-.42-.4-.62-.62l-.27-.31-.14-.17s-.17-.21,0,0,0,0-.05-.07l-.11-.15-.25-.38c-.15-.23-.28-.47-.41-.71l-.18-.37-.1-.21c-.08-.18,0,.05,0,.11a15.79,15.79,0,0,1-.52-1.65,1.51,1.51,0,0,0-1.85-1.05,1.53,1.53,0,0,0-1,1.84Z" transform="translate(119 1)"/><path class="cls-34" d="M1246.48,590.8c-.46-.13-.91-.28-1.36-.44l-.63-.23a3.22,3.22,0,0,0-.62-.25l.09,0-.13-.06-.3-.13-.61-.29c-.43-.21-.85-.43-1.27-.66a1.52,1.52,0,0,0-2.05.53,1.54,1.54,0,0,0,.54,2.06,27.78,27.78,0,0,0,5.54,2.33,1.5,1.5,0,1,0,.8-2.9Z" transform="translate(119 1)"/><path class="cls-34" d="M1235,593.44a30.62,30.62,0,0,1-3.49-1.21l.36.15c-.53-.22-1-.46-1.56-.71a1.59,1.59,0,0,0-1.15-.15,1.56,1.56,0,0,0-.9.69,1.52,1.52,0,0,0,.54,2,32.39,32.39,0,0,0,5.4,2.08,1.5,1.5,0,1,0,.8-2.9Z" transform="translate(119 1)"/><path class="cls-34" d="M1212.32,592.39h-12.27a1.5,1.5,0,0,0,0,3h12.27a1.5,1.5,0,0,0,0-3Z" transform="translate(119 1)"/><path class="cls-16" d="M2023,493.75" transform="translate(119 1)"/></g><g id="chair"><path class="cls-35" d="M221,1080,366,809H1428.09L1564,1080Z" transform="translate(119 1)"/><path class="cls-36" d="M275.05,1079.17,408.43,843.63h977q62.5,117.76,125,235.54Z" transform="translate(119 1)"/></g></svg>